<?xml version="1.0" standalone="no"?>
<!DOCTYPE svg PUBLIC "-//W3C//DTD SVG 20010904//EN"
 "http://www.w3.org/TR/2001/REC-SVG-20010904/DTD/svg10.dtd">
<svg version="1.0" xmlns="http://www.w3.org/2000/svg"
 width="1131.000000pt" height="1135.000000pt" viewBox="0 0 1131.000000 1135.000000"
 preserveAspectRatio="xMidYMid meet">
<metadata>
Created by potrace 1.15, written by Peter Selinger 2001-2017
</metadata>
<g transform="translate(0.000000,1135.000000) scale(0.100000,-0.100000)"
fill="#000000" stroke="none">
<path d="M1158 11174 c-258 -46 -476 -162 -668 -354 -152 -151 -249 -308 -310
-497 -65 -201 -60 165 -60 -4633 0 -3826 2 -4378 15 -4453 45 -259 165 -488
354 -678 190 -189 419 -309 678 -354 75 -13 627 -15 4453 -15 3826 0 4378 2
4453 15 259 45 488 165 678 354 189 190 309 419 354 678 13 75 15 627 15 4453
0 4768 4 4430 -56 4622 -120 381 -440 702 -822 822 -191 60 149 56 -4631 55
-3685 -1 -4388 -3 -4453 -15z m8772 -995 c66 -14 127 -62 159 -124 l26 -49 0
-4316 0 -4316 -26 -49 c-32 -62 -93 -110 -159 -124 -72 -16 -8548 -16 -8620 0
-66 14 -127 62 -159 124 l-26 49 0 4316 0 4316 25 48 c31 61 85 105 147 122
64 17 8553 20 8633 3z"/>
<path d="M2655 9314 c-330 -73 -593 -342 -660 -673 -27 -131 -17 -307 23 -431
41 -123 106 -233 194 -326 86 -90 141 -132 244 -183 231 -116 509 -120 739
-12 200 94 333 226 427 428 58 124 82 247 75 393 -12 235 -96 420 -266 583
-97 92 -205 157 -331 199 -84 27 -111 31 -235 34 -101 3 -160 -1 -210 -12z"/>
<path d="M7100 7035 c-309 -42 -592 -168 -825 -366 -111 -94 -236 -241 -290
-342 -42 -79 -45 -59 -45 288 l0 325 -710 0 -710 0 0 -2375 0 -2375 740 0 739
0 4 1338 c4 1445 2 1400 58 1602 90 330 270 519 564 591 119 30 372 33 480 6
118 -30 211 -81 291 -161 151 -152 220 -356 244 -721 5 -84 10 -707 10 -1402
l0 -1253 735 0 736 0 -4 1548 c-3 1077 -7 1574 -15 1637 -41 318 -72 476 -133
660 -226 687 -754 1019 -1614 1014 -88 -1 -203 -7 -255 -14z"/>
<path d="M2120 4565 l0 -2375 745 0 745 0 0 2375 0 2375 -745 0 -745 0 0
-2375z"/>
</g>
</svg>
